<svg width="18" height="15" viewBox="0 0 18 15" fill="none" xmlns="http://www.w3.org/2000/svg">
<path d="M3.328 12C3.228 12 3.178 11.95 3.178 11.85L3.178 4.152C3.178 4.052 3.228 4.002 3.328 4.002L6.988 4.002C7.084 4.002 7.164 4.034 7.228 4.098L8.428 5.298C8.496 5.366 8.53 5.446 8.53 5.538L8.53 10.458C8.53 10.554 8.496 10.634 8.428 10.698L7.228 11.898C7.164 11.966 7.084 12 6.988 12L3.328 12ZM5.182 10.398L6.28 10.398C6.448 10.398 6.532 10.286 6.532 10.062L6.532 5.94C6.532 5.712 6.448 5.598 6.28 5.598L5.182 5.598L5.182 10.398ZM10.1031 12C10.0031 12 9.95312 11.95 9.95312 11.85L9.95312 4.152C9.95312 4.052 10.0031 4.002 10.1031 4.002L13.7151 4.002C13.8071 4.002 13.8871 4.034 13.9551 4.098L15.1551 5.298C15.2191 5.366 15.2511 5.446 15.2511 5.538L15.2511 6.798C15.2511 6.838 15.2431 6.87 15.2271 6.894C15.2111 6.918 15.1871 6.946 15.1551 6.978L14.2131 7.818L14.1231 8.04L14.2131 8.202L15.1551 9.042C15.1871 9.074 15.2111 9.102 15.2271 9.126C15.2431 9.146 15.2511 9.178 15.2511 9.222L15.2511 10.458C15.2511 10.554 15.2191 10.634 15.1551 10.698L13.9551 11.898C13.8871 11.966 13.8071 12 13.7151 12L10.1031 12ZM12.4911 10.65C12.8231 10.65 13.0491 10.584 13.1691 10.452C13.2931 10.32 13.3551 10.07 13.3551 9.702C13.3551 9.33 13.2931 9.078 13.1691 8.946C13.0491 8.814 12.8231 8.748 12.4911 8.748C12.1631 8.748 11.9371 8.814 11.8131 8.946C11.6931 9.078 11.6331 9.33 11.6331 9.702C11.6331 10.07 11.6931 10.32 11.8131 10.452C11.9371 10.584 12.1631 10.65 12.4911 10.65ZM12.4911 7.248C12.8231 7.248 13.0491 7.182 13.1691 7.05C13.2931 6.918 13.3551 6.668 13.3551 6.3C13.3551 5.932 13.2931 5.682 13.1691 5.55C13.0491 5.418 12.8231 5.352 12.4911 5.352C12.1631 5.352 11.9371 5.418 11.8131 5.55C11.6931 5.682 11.6331 5.932 11.6331 6.3C11.6331 6.668 11.6931 6.918 11.8131 7.05C11.9371 7.182 12.1631 7.248 12.4911 7.248Z" fill="white"/>
<path d="M18 8L16.5 11.8971L16.5 4.10289L18 8Z" fill="#F54900"/>
<path d="M2 8L0.5 11.8971L0.5 4.10289L2 8Z" fill="#F54900"/>
</svg>
